REM DIRINDEX 1\3,1\4,1\5,1\6,1\2\7,1\2\8,1\2\9,1\2\10,1\2\11
REM DIRNAME folder01,folder02,folder03,folder04,folder05,folder06,folder07,folder08,folder09,folder10,folder11
TITLE ""
FILE "DISC5Track03.mp3" MP3
  TRACK 01 AUDIO
    TITLE "0:"
    INDEX 01 00:00:00
  TRACK 02 AUDIO
    TITLE "3:cjc021_4873"
    INDEX 01 00:00:23
  TRACK 03 AUDIO
    TITLE "0:"
    INDEX 01 00:01:24
  TRACK 04 AUDIO
    TITLE "4:cjc021_4874"
    INDEX 01 00:03:02
  TRACK 05 AUDIO
    TITLE "0:"
    INDEX 01 00:04:01
  TRACK 06 AUDIO
    TITLE "5:cjc021_4875"
    INDEX 01 00:04:40
  TRACK 07 AUDIO
    TITLE "0:"
    INDEX 01 00:07:13
  TRACK 08 AUDIO
    TITLE "3:cjc021_4876"
    INDEX 01 00:08:50
  TRACK 09 AUDIO
    TITLE "0:"
    INDEX 01 00:09:49
  TRACK 10 AUDIO
    TITLE "4:cjc021_4877"
    INDEX 01 00:11:27
  TRACK 11 AUDIO
    TITLE "0:"
    INDEX 01 00:12:26
  TRACK 12 AUDIO
    TITLE "5:cjc021_4878"
    INDEX 01 00:12:63
  TRACK 13 AUDIO
    TITLE "0:"
    INDEX 01 00:15:32
  TRACK 14 AUDIO
    TITLE "3:cjc021_4879"
    INDEX 01 00:16:69
  TRACK 15 AUDIO
    TITLE "0:"
    INDEX 01 00:18:15
  TRACK 16 AUDIO
    TITLE "4:cjc021_4880"
    INDEX 01 00:19:65
  TRACK 17 AUDIO
    TITLE "0:"
    INDEX 01 00:21:13
  TRACK 18 AUDIO
    TITLE "5:cjc021_4881"
    INDEX 01 00:21:47
  TRACK 19 AUDIO
    TITLE "0:"
    INDEX 01 00:25:27
  TRACK 20 AUDIO
    TITLE "3:cjc021_4882"
    INDEX 01 00:26:64
  TRACK 21 AUDIO
    TITLE "0:"
    INDEX 01 00:28:13
  TRACK 22 AUDIO
    TITLE "4:cjc021_4883"
    INDEX 01 00:29:68
  TRACK 23 AUDIO
    TITLE "0:"
    INDEX 01 00:31:18
  TRACK 24 AUDIO
    TITLE "5:cjc021_4884"
    INDEX 01 00:31:57
  TRACK 25 AUDIO
    TITLE "0:"
    INDEX 01 00:34:61
  TRACK 26 AUDIO
    TITLE "3:cjc021_4885"
    INDEX 01 00:36:23
  TRACK 27 AUDIO
    TITLE "0:"
    INDEX 01 00:37:40
  TRACK 28 AUDIO
    TITLE "4:cjc021_4886"
    INDEX 01 00:39:17
  TRACK 29 AUDIO
    TITLE "0:"
    INDEX 01 00:40:32
  TRACK 30 AUDIO
    TITLE "5:cjc021_4887"
    INDEX 01 00:40:68
  TRACK 31 AUDIO
    TITLE "0:"
    INDEX 01 00:43:19
  TRACK 32 AUDIO
    TITLE "3:cjc021_4888"
    INDEX 01 00:44:58
  TRACK 33 AUDIO
    TITLE "0:"
    INDEX 01 00:46:07
  TRACK 34 AUDIO
    TITLE "4:cjc021_4889"
    INDEX 01 00:47:58
  TRACK 35 AUDIO
    TITLE "0:"
    INDEX 01 00:49:06
  TRACK 36 AUDIO
    TITLE "5:cjc021_4890"
    INDEX 01 00:49:43
  TRACK 37 AUDIO
    TITLE "0:"
    INDEX 01 00:53:00
  TRACK 38 AUDIO
    TITLE "3:cjc021_4891"
    INDEX 01 00:54:38
  TRACK 39 AUDIO
    TITLE "0:"
    INDEX 01 00:55:44
  TRACK 40 AUDIO
    TITLE "4:cjc021_4892"
    INDEX 01 00:57:21
  TRACK 41 AUDIO
    TITLE "0:"
    INDEX 01 00:58:28
  TRACK 42 AUDIO
    TITLE "5:cjc021_4893"
    INDEX 01 00:58:64
  TRACK 43 AUDIO
    TITLE "0:"
    INDEX 01 01:01:58
  TRACK 44 AUDIO
    TITLE "3:cjc021_4894"
    INDEX 01 01:03:20
  TRACK 45 AUDIO
    TITLE "0:"
    INDEX 01 01:04:23
  TRACK 46 AUDIO
    TITLE "4:cjc021_4895"
    INDEX 01 01:06:00
  TRACK 47 AUDIO
    TITLE "0:"
    INDEX 01 01:07:02
  TRACK 48 AUDIO
    TITLE "5:cjc021_4896"
    INDEX 01 01:07:39
  TRACK 49 AUDIO
    TITLE "0:"
    INDEX 01 01:10:41
  TRACK 50 AUDIO
    TITLE "3:cjc021_4897"
    INDEX 01 01:12:07
  TRACK 51 AUDIO
    TITLE "0:"
    INDEX 01 01:13:02
  TRACK 52 AUDIO
    TITLE "4:cjc021_4898"
    INDEX 01 01:14:55
  TRACK 53 AUDIO
    TITLE "0:"
    INDEX 01 01:15:50
  TRACK 54 AUDIO
    TITLE "5:cjc021_4899"
    INDEX 01 01:16:11
  TRACK 55 AUDIO
    TITLE "0:"
    INDEX 01 01:18:35
  TRACK 56 AUDIO
    TITLE "3:cjc021_4900"
    INDEX 01 01:20:00
  TRACK 57 AUDIO
    TITLE "0:"
    INDEX 01 01:20:71
  TRACK 58 AUDIO
    TITLE "4:cjc021_4901"
    INDEX 01 01:22:50
  TRACK 59 AUDIO
    TITLE "0:"
    INDEX 01 01:23:46
  TRACK 60 AUDIO
    TITLE "5:cjc021_4902"
    INDEX 01 01:24:10
  TRACK 61 AUDIO
    TITLE "0:"
    INDEX 01 01:26:68
